<?xml version="1.0" standalone="no"?><svg xmlns="http://www.w3.org/2000/svg" viewBox="0 0 1440 320"><path fill="#0099ff" fill-opacity="1" d="M0,96L15,122.7C30,149,60,203,90,213.3C120,224,150,192,180,160C210,128,240,96,270,96C300,96,330,128,360,160C390,192,420,224,450,213.3C480,203,510,149,540,122.7C570,96,600,96,630,90.7C660,85,690,75,720,58.7C750,43,780,21,810,42.7C840,64,870,128,900,133.3C930,139,960,85,990,96C1020,107,1050,181,1080,186.7C1110,192,1140,128,1170,101.3C1200,75,1230,85,1260,117.3C1290,149,1320,203,1350,213.3C1380,224,1410,192,1425,176L1440,160L1440,0L1425,0C1410,0,1380,0,1350,0C1320,0,1290,0,1260,0C1230,0,1200,0,1170,0C1140,0,1110,0,1080,0C1050,0,1020,0,990,0C960,0,930,0,900,0C870,0,840,0,810,0C780,0,750,0,720,0C690,0,660,0,630,0C600,0,570,0,540,0C510,0,480,0,450,0C420,0,390,0,360,0C330,0,300,0,270,0C240,0,210,0,180,0C150,0,120,0,90,0C60,0,30,0,15,0L0,0Z"></path></svg>