<?xml version="1.0" standalone="no"?><svg xmlns="http://www.w3.org/2000/svg" viewBox="0 0 1440 320"><path fill="#0099ff" fill-opacity="1" d="M0,96L15,122.7C30,149,60,203,90,213.3C120,224,150,192,180,160C210,128,240,96,270,96C300,96,330,128,360,160C390,192,420,224,450,213.3C480,203,510,149,540,122.7C570,96,600,96,630,90.7C660,85,690,75,720,58.7C750,43,780,21,810,42.7C840,64,870,128,900,133.3C930,139,960,85,990,96C1020,107,1050,181,1080,186.7C1110,192,1140,128,1170,101.3C1200,75,1230,85,1260,117.3C1290,149,1320,203,1350,213.3C1380,224,1410,192,1425,176L1440,160L1440,320L1425,320C1410,320,1380,320,1350,320C1320,320,1290,320,1260,320C1230,320,1200,320,1170,320C1140,320,1110,320,1080,320C1050,320,1020,320,990,320C960,320,930,320,900,320C870,320,840,320,810,320C780,320,750,320,720,320C690,320,660,320,630,320C600,320,570,320,540,320C510,320,480,320,450,320C420,320,390,320,360,320C330,320,300,320,270,320C240,320,210,320,180,320C150,320,120,320,90,320C60,320,30,320,15,320L0,320Z"></path></svg>